<svg xmlns="http://www.w3.org/2000/svg" viewBox="0 0 32 32" width="32" height="32">
  <defs>
    <linearGradient id="g" x1="0%" y1="0%" x2="100%" y2="100%">
      <stop offset="0%" stop-color="#7C3AED"/>
      <stop offset="50%" stop-color="#3B82F6"/>
      <stop offset="100%" stop-color="#06B6D4"/>
    </linearGradient>
  </defs>
  <!-- Fond rond -->
  <circle cx="16" cy="16" r="15" fill="url(#g)"/>
  <!-- Connexions entre agents (lignes) -->
  <line x1="11" y1="10" x2="21" y2="10" stroke="white" stroke-width="1.2" opacity="0.6"/>
  <line x1="11" y1="10" x2="8" y2="19" stroke="white" stroke-width="1.2" opacity="0.6"/>
  <line x1="21" y1="10" x2="23" y2="19" stroke="white" stroke-width="1.2" opacity="0.6"/>
  <line x1="8" y1="19" x2="16" y2="24" stroke="white" stroke-width="1.2" opacity="0.6"/>
  <line x1="23" y1="19" x2="16" y2="24" stroke="white" stroke-width="1.2" opacity="0.6"/>
  <line x1="16" y1="15" x2="11" y2="10" stroke="white" stroke-width="1.2" opacity="0.6"/>
  <line x1="16" y1="15" x2="21" y2="10" stroke="white" stroke-width="1.2" opacity="0.6"/>
  <line x1="16" y1="15" x2="8" y2="19" stroke="white" stroke-width="1.2" opacity="0.6"/>
  <line x1="16" y1="15" x2="23" y2="19" stroke="white" stroke-width="1.2" opacity="0.6"/>
  <line x1="16" y1="15" x2="16" y2="24" stroke="white" stroke-width="1.2" opacity="0.6"/>
  <!-- Noeuds agents (points) -->
  <circle cx="16" cy="15" r="2.8" fill="white"/>
  <circle cx="11" cy="10" r="2" fill="white"/>
  <circle cx="21" cy="10" r="2" fill="white"/>
  <circle cx="8" cy="19" r="2" fill="white"/>
  <circle cx="23" cy="19" r="2" fill="white"/>
  <circle cx="16" cy="24" r="2" fill="white"/>
</svg>
